<svg height="128" width="128" xmlns="http://www.w3.org/2000/svg"> <rect x="2" y="2" width="124" height="124" rx="14" fill="#808080" stroke="#4e4e4e" stroke-width="4"/><path d="m22.88,77.92 -2.43,-9.29 -4.51,4.55 6.9,24.22 21.81,8.98 -1.22,-18.81zm24.7,9.71 0.96,20.24 15.41,6.31 15.31,-6.27 0.99,-20.28 -16.29,-6.48zm16.38,-26.51 41.71,-14.64 2.08,-3.65 -11.76,-18.18 -8.58,1.49 -8.01,-3.54 -2.5,-7.68 -25.75,0.02 -2.73,7.86 -7.88,3.33 -8.409,-1.53 -11.89,18.35 2.12,3.52zm43.49,7.51 -2.33,9.25 -20.59,9.69 -1.22,18.81 21.79,-8.98 6.92,-24.22z" fill="#fe3f02"/><path d="M104.12,64.19 102.59,51.96 63.96,65.07C61.34,64.17 26.47,52.13 25.36,51.86 l -1.53,12.39 2.6,10.97 19.21,8.7 18.33,-6.79 18.33,6.77 19.12,-8.6zm-52.87,7.19c-0.63,1.07 -1.49,2.03 -2.5,2.77 -2.94,2.16 -6.79,2.45 -9.96,1.09 -1.87,-0.82 -3.5,-2.2 -4.55,-4.15 -0.61,-1.13 -1.01,-2.35 -1.15,-3.63 -0.27,-2.31 0.4,-4.24 1.36,-6.29 l 18.06,6.65c-0.19,1.26 -0.61,2.5 -1.26,3.56m43.62,-3.92c-0.15,1.28 -0.55,2.5 -1.15,3.63 -1.05,1.93 -2.66,3.33 -4.53,4.15 -3.15,1.38 -7,1.07 -9.94,-1.09 -1.01,-0.73 -1.87,-1.7 -2.5,-2.77 -0.65,-1.07 -1.09,-2.31 -1.26,-3.56 l 17.99,-6.65c0.99,2.06 1.66,3.98 1.38,6.29" fill="#fe3f02"/></svg>